<mxfile host="Electron" modified="2024-03-01T19:58:51.354Z" agent="Mozilla/5.0 (Windows NT 10.0; Win64; x64) AppleWebKit/537.36 (KHTML, like Gecko) draw.io/23.1.5 Chrome/120.0.6099.109 Electron/28.1.0 Safari/537.36" etag="SxTc74x5vwtiAxbPZ91D" version="23.1.5" type="device">
  <diagram name="PÃ¡gina-1" id="8a7tAf_y6ZLoV1fNxLT-">
    <mxGraphModel dx="3000" dy="1239" grid="0" gridSize="10" guides="1" tooltips="1" connect="1" arrows="1" fold="1" page="0" pageScale="1" pageWidth="1169" pageHeight="827" background="#E6E6E6" math="0" shadow="0">
      <root>
        <mxCell id="0" />
        <mxCell id="1" parent="0" />
        <mxCell id="m5CR8sbhtSTVhbRc3k3T-5" value="Factura" style="swimlane;fontStyle=1;childLayout=stackLayout;horizontal=1;startSize=26;fillColor=#008796;horizontalStack=0;resizeParent=1;resizeParentMax=0;resizeLast=0;collapsible=1;marginBottom=0;whiteSpace=wrap;html=1;points=[[0,0,0,0,0],[0,0.25,0,0,0],[0,0.5,0,0,0],[0,0.75,0,0,0],[0,1,0,0,0],[0.25,0,0,0,0],[0.25,1,0,0,0],[0.5,0,0,0,0],[0.5,1,0,0,0],[0.75,0,0,0,0],[0.75,1,0,0,0],[1,0,0,0,0],[1,0.25,0,0,0],[1,0.5,0,0,0],[1,0.75,0,0,0],[1,1,0,0,0]];fontColor=#F7FCFC;strokeColor=#000000;fontSize=15;strokeWidth=2;swimlaneFillColor=#F7FCFC;fontFamily=Verdana;" parent="1" vertex="1">
          <mxGeometry x="326" y="113" width="337" height="304" as="geometry" />
        </mxCell>
        <mxCell id="m5CR8sbhtSTVhbRc3k3T-6" value="codFactura: int" style="text;strokeColor=none;fillColor=none;align=left;verticalAlign=top;spacingLeft=4;spacingRight=4;overflow=hidden;rotatable=0;points=[[0,0.5],[1,0.5]];portConstraint=eastwest;whiteSpace=wrap;html=1;fontColor=#000000;fontSize=15;fontFamily=Verdana;" parent="m5CR8sbhtSTVhbRc3k3T-5" vertex="1">
          <mxGeometry y="26" width="337" height="26" as="geometry" />
        </mxCell>
        <mxCell id="m5CR8sbhtSTVhbRc3k3T-7" value="fechaEmision: date" style="text;strokeColor=none;fillColor=none;align=left;verticalAlign=top;spacingLeft=4;spacingRight=4;overflow=hidden;rotatable=0;points=[[0,0.5],[1,0.5]];portConstraint=eastwest;whiteSpace=wrap;html=1;fontColor=#000000;fontSize=15;fontFamily=Verdana;" parent="m5CR8sbhtSTVhbRc3k3T-5" vertex="1">
          <mxGeometry y="52" width="337" height="26" as="geometry" />
        </mxCell>
        <object label="total: float" Total="" id="fgJ_T-vyC5k4SfeZIv40-2">
          <mxCell style="text;strokeColor=none;fillColor=none;align=left;verticalAlign=top;spacingLeft=4;spacingRight=4;overflow=hidden;rotatable=0;points=[[0,0.5],[1,0.5]];portConstraint=eastwest;whiteSpace=wrap;html=1;fontColor=#000000;fontSize=15;fontFamily=Verdana;" parent="m5CR8sbhtSTVhbRc3k3T-5" vertex="1">
            <mxGeometry y="78" width="337" height="26" as="geometry" />
          </mxCell>
        </object>
        <object label="estado:&amp;nbsp;&lt;span style=&quot;text-align: center;&quot;&gt;EnEstadoFactura&lt;/span&gt;" Total="" id="fgJ_T-vyC5k4SfeZIv40-3">
          <mxCell style="text;strokeColor=none;fillColor=none;align=left;verticalAlign=top;spacingLeft=4;spacingRight=4;overflow=hidden;rotatable=0;points=[[0,0.5],[1,0.5]];portConstraint=eastwest;whiteSpace=wrap;html=1;fontColor=#000000;fontSize=15;fontFamily=Verdana;" parent="m5CR8sbhtSTVhbRc3k3T-5" vertex="1">
            <mxGeometry y="104" width="337" height="26" as="geometry" />
          </mxCell>
        </object>
        <object label="metodoDePago: EnMetodosDePago" Total="" id="fgJ_T-vyC5k4SfeZIv40-6">
          <mxCell style="text;strokeColor=none;fillColor=none;align=left;verticalAlign=top;spacingLeft=4;spacingRight=4;overflow=hidden;rotatable=0;points=[[0,0.5],[1,0.5]];portConstraint=eastwest;whiteSpace=wrap;html=1;fontColor=#000000;fontSize=15;fontFamily=Verdana;" parent="m5CR8sbhtSTVhbRc3k3T-5" vertex="1">
            <mxGeometry y="130" width="337" height="26" as="geometry" />
          </mxCell>
        </object>
        <object label="infoAlquiler: Alquiler" Total="" id="fgJ_T-vyC5k4SfeZIv40-9">
          <mxCell style="text;strokeColor=none;fillColor=none;align=left;verticalAlign=top;spacingLeft=4;spacingRight=4;overflow=hidden;rotatable=0;points=[[0,0.5],[1,0.5]];portConstraint=eastwest;whiteSpace=wrap;html=1;fontColor=#000000;fontSize=15;fontFamily=Verdana;" parent="m5CR8sbhtSTVhbRc3k3T-5" vertex="1">
            <mxGeometry y="156" width="337" height="26" as="geometry" />
          </mxCell>
        </object>
        <mxCell id="m5CR8sbhtSTVhbRc3k3T-3" value="" style="line;strokeWidth=3;fillColor=none;align=left;verticalAlign=middle;spacingTop=-1;spacingLeft=3;spacingRight=3;rotatable=0;labelPosition=right;points=[];portConstraint=eastwest;strokeColor=inherit;fontColor=#000000;fontSize=15;fontFamily=Verdana;" parent="m5CR8sbhtSTVhbRc3k3T-5" vertex="1">
          <mxGeometry y="182" width="337" height="2" as="geometry" />
        </mxCell>
        <mxCell id="m5CR8sbhtSTVhbRc3k3T-4" value="aplicar_descuento(cantidadEquipos)" style="text;strokeColor=none;fillColor=none;align=left;verticalAlign=top;spacingLeft=4;spacingRight=4;overflow=hidden;rotatable=0;points=[[0,0.5],[1,0.5]];portConstraint=eastwest;whiteSpace=wrap;html=1;fontColor=#000000;fontSize=15;fontFamily=Verdana;" parent="m5CR8sbhtSTVhbRc3k3T-5" vertex="1">
          <mxGeometry y="184" width="337" height="30" as="geometry" />
        </mxCell>
        <mxCell id="KvDCw4Us0EKXB_KUAqWt-22" value="generar_reporte_factura()" style="text;strokeColor=none;fillColor=none;align=left;verticalAlign=top;spacingLeft=4;spacingRight=4;overflow=hidden;rotatable=0;points=[[0,0.5],[1,0.5]];portConstraint=eastwest;whiteSpace=wrap;html=1;fontColor=#000000;fontSize=15;fontFamily=Verdana;" parent="m5CR8sbhtSTVhbRc3k3T-5" vertex="1">
          <mxGeometry y="214" width="337" height="30" as="geometry" />
        </mxCell>
        <mxCell id="m6P9gPZGM51h0eqVbEvU-8" value="actualizar_factura()" style="text;strokeColor=none;fillColor=none;align=left;verticalAlign=top;spacingLeft=4;spacingRight=4;overflow=hidden;rotatable=0;points=[[0,0.5],[1,0.5]];portConstraint=eastwest;whiteSpace=wrap;html=1;fontColor=#000000;fontSize=15;fontFamily=Verdana;" vertex="1" parent="m5CR8sbhtSTVhbRc3k3T-5">
          <mxGeometry y="244" width="337" height="30" as="geometry" />
        </mxCell>
        <mxCell id="m6P9gPZGM51h0eqVbEvU-10" value="calcular_total()" style="text;strokeColor=none;fillColor=none;align=left;verticalAlign=top;spacingLeft=4;spacingRight=4;overflow=hidden;rotatable=0;points=[[0,0.5],[1,0.5]];portConstraint=eastwest;whiteSpace=wrap;html=1;fontColor=#000000;fontSize=15;fontFamily=Verdana;" vertex="1" parent="m5CR8sbhtSTVhbRc3k3T-5">
          <mxGeometry y="274" width="337" height="30" as="geometry" />
        </mxCell>
        <mxCell id="fgJ_T-vyC5k4SfeZIv40-5" value="" style="html=1;verticalAlign=bottom;endArrow=open;dashed=1;endSize=8;curved=0;rounded=0;exitX=1;exitY=0.5;exitDx=0;exitDy=0;entryX=0;entryY=0.5;entryDx=0;entryDy=0;fontColor=#000000;strokeColor=#000000;strokeWidth=3;fontSize=15;fontFamily=Verdana;" parent="1" source="fgJ_T-vyC5k4SfeZIv40-3" target="0J0UeyugDyh7OBtp51ZW-2" edge="1">
          <mxGeometry relative="1" as="geometry">
            <mxPoint x="591" y="199" as="sourcePoint" />
            <mxPoint x="719" y="182" as="targetPoint" />
            <Array as="points">
              <mxPoint x="726" y="230" />
              <mxPoint x="726" y="138" />
            </Array>
          </mxGeometry>
        </mxCell>
        <mxCell id="fgJ_T-vyC5k4SfeZIv40-7" value="&lt;p style=&quot;margin: 4px 0px 0px; text-align: center; font-size: 15px;&quot;&gt;&lt;i style=&quot;font-size: 15px;&quot;&gt;&amp;lt;&amp;lt;enumeration&amp;gt;&amp;gt;&lt;/i&gt;&lt;br style=&quot;font-size: 15px;&quot;&gt;&lt;b style=&quot;font-size: 15px;&quot;&gt;EnMetodosDePago&lt;/b&gt;&lt;/p&gt;&lt;hr style=&quot;font-size: 15px;&quot;&gt;&lt;p style=&quot;margin: 0px 0px 0px 4px; font-size: 15px;&quot;&gt;TARJETA_CREDITO&lt;br style=&quot;font-size: 15px;&quot;&gt;    TARJETA_DEBITO&lt;br style=&quot;font-size: 15px;&quot;&gt;    PAYPAL&lt;br style=&quot;font-size: 15px;&quot;&gt;    STRIPE&lt;br style=&quot;font-size: 15px;&quot;&gt;    TRANSFERENCIA_BANCARIA&lt;br style=&quot;font-size: 15px;&quot;&gt;    EFECTIVO&lt;br style=&quot;font-size: 15px;&quot;&gt;    CRIPTOMONEDAS&lt;br style=&quot;font-size: 15px;&quot;&gt;    PAGO_MOVIL&lt;br style=&quot;font-size: 15px;&quot;&gt;    PAGO_RECURRENTES&lt;br style=&quot;font-size: 15px;&quot;&gt;&lt;/p&gt;" style="verticalAlign=top;align=left;overflow=fill;fontSize=15;fontFamily=Verdana;html=1;whiteSpace=wrap;fontColor=#ffffff;fillColor=#008796;strokeColor=#000000;strokeWidth=2;" parent="1" vertex="1">
          <mxGeometry x="791" y="285" width="243" height="231" as="geometry" />
        </mxCell>
        <mxCell id="fgJ_T-vyC5k4SfeZIv40-10" value="" style="html=1;verticalAlign=bottom;endArrow=open;dashed=1;endSize=8;curved=0;rounded=0;exitX=1;exitY=0.5;exitDx=0;exitDy=0;entryX=0;entryY=0.5;entryDx=0;entryDy=0;fontColor=#000000;strokeColor=#000000;strokeWidth=3;fontSize=15;fontFamily=Verdana;" parent="1" source="fgJ_T-vyC5k4SfeZIv40-6" target="fgJ_T-vyC5k4SfeZIv40-7" edge="1">
          <mxGeometry relative="1" as="geometry">
            <mxPoint x="638" y="250" as="sourcePoint" />
            <mxPoint x="772" y="212" as="targetPoint" />
            <Array as="points">
              <mxPoint x="719" y="258" />
              <mxPoint x="724" y="401" />
            </Array>
          </mxGeometry>
        </mxCell>
        <mxCell id="KvDCw4Us0EKXB_KUAqWt-5" value="Alquileres" style="swimlane;fontStyle=1;childLayout=stackLayout;horizontal=1;startSize=26;fillColor=#008796;horizontalStack=0;resizeParent=1;resizeParentMax=0;resizeLast=0;collapsible=1;marginBottom=0;whiteSpace=wrap;html=1;points=[[0,0,0,0,0],[0,0.25,0,0,0],[0,0.5,0,0,0],[0,0.75,0,0,0],[0,1,0,0,0],[0.25,0,0,0,0],[0.25,1,0,0,0],[0.5,0,0,0,0],[0.5,1,0,0,0],[0.75,0,0,0,0],[0.75,1,0,0,0],[1,0,0,0,0],[1,0.25,0,0,0],[1,0.5,0,0,0],[1,0.75,0,0,0],[1,1,0,0,0]];fontColor=#ffffff;strokeColor=#000000;fontSize=15;strokeWidth=2;swimlaneFillColor=#F7FCFC;fontFamily=Verdana;" parent="1" vertex="1">
          <mxGeometry x="-310" y="133" width="526" height="290" as="geometry" />
        </mxCell>
        <object label="idAlquiler: int" Total="" id="m6P9gPZGM51h0eqVbEvU-9">
          <mxCell style="text;strokeColor=none;fillColor=none;align=left;verticalAlign=top;spacingLeft=4;spacingRight=4;overflow=hidden;rotatable=0;points=[[0,0.5],[1,0.5]];portConstraint=eastwest;whiteSpace=wrap;html=1;fontColor=#000000;fontSize=15;fontFamily=Verdana;" vertex="1" parent="KvDCw4Us0EKXB_KUAqWt-5">
            <mxGeometry y="26" width="526" height="26" as="geometry" />
          </mxCell>
        </object>
        <object label="cliente: Cliente" Total="" id="m5CR8sbhtSTVhbRc3k3T-8">
          <mxCell style="text;strokeColor=none;fillColor=none;align=left;verticalAlign=top;spacingLeft=4;spacingRight=4;overflow=hidden;rotatable=0;points=[[0,0.5],[1,0.5]];portConstraint=eastwest;whiteSpace=wrap;html=1;fontColor=#000000;fontSize=15;fontFamily=Verdana;" parent="KvDCw4Us0EKXB_KUAqWt-5" vertex="1">
            <mxGeometry y="52" width="526" height="26" as="geometry" />
          </mxCell>
        </object>
        <object label="equipos:&amp;nbsp;List&amp;lt;Equipos&amp;gt;" Total="" id="KvDCw4Us0EKXB_KUAqWt-10">
          <mxCell style="text;strokeColor=none;fillColor=none;align=left;verticalAlign=top;spacingLeft=4;spacingRight=4;overflow=hidden;rotatable=0;points=[[0,0.5],[1,0.5]];portConstraint=eastwest;whiteSpace=wrap;html=1;fontColor=#000000;fontSize=15;fontFamily=Verdana;" parent="KvDCw4Us0EKXB_KUAqWt-5" vertex="1">
            <mxGeometry y="78" width="526" height="26" as="geometry" />
          </mxCell>
        </object>
        <object label="fechaInicio: date" Total="" id="m6P9gPZGM51h0eqVbEvU-6">
          <mxCell style="text;strokeColor=none;fillColor=none;align=left;verticalAlign=top;spacingLeft=4;spacingRight=4;overflow=hidden;rotatable=0;points=[[0,0.5],[1,0.5]];portConstraint=eastwest;whiteSpace=wrap;html=1;fontColor=#000000;fontSize=15;fontFamily=Verdana;" vertex="1" parent="KvDCw4Us0EKXB_KUAqWt-5">
            <mxGeometry y="104" width="526" height="26" as="geometry" />
          </mxCell>
        </object>
        <object label="fechaFin: date" Total="" id="m6P9gPZGM51h0eqVbEvU-7">
          <mxCell style="text;strokeColor=none;fillColor=none;align=left;verticalAlign=top;spacingLeft=4;spacingRight=4;overflow=hidden;rotatable=0;points=[[0,0.5],[1,0.5]];portConstraint=eastwest;whiteSpace=wrap;html=1;fontColor=#000000;fontSize=15;fontFamily=Verdana;" vertex="1" parent="KvDCw4Us0EKXB_KUAqWt-5">
            <mxGeometry y="130" width="526" height="26" as="geometry" />
          </mxCell>
        </object>
        <object label="estado: EnEstadoAlquiler" Total="" id="m6P9gPZGM51h0eqVbEvU-28">
          <mxCell style="text;strokeColor=none;fillColor=none;align=left;verticalAlign=top;spacingLeft=4;spacingRight=4;overflow=hidden;rotatable=0;points=[[0,0.5],[1,0.5]];portConstraint=eastwest;whiteSpace=wrap;html=1;fontColor=#000000;fontSize=15;fontFamily=Verdana;" vertex="1" parent="KvDCw4Us0EKXB_KUAqWt-5">
            <mxGeometry y="156" width="526" height="26" as="geometry" />
          </mxCell>
        </object>
        <mxCell id="KvDCw4Us0EKXB_KUAqWt-15" value="" style="line;strokeWidth=3;fillColor=none;align=left;verticalAlign=middle;spacingTop=-1;spacingLeft=3;spacingRight=3;rotatable=0;labelPosition=right;points=[];portConstraint=eastwest;strokeColor=inherit;fontColor=#000000;fontSize=15;fontFamily=Verdana;" parent="KvDCw4Us0EKXB_KUAqWt-5" vertex="1">
          <mxGeometry y="182" width="526" height="4" as="geometry" />
        </mxCell>
        <mxCell id="KvDCw4Us0EKXB_KUAqWt-16" value="cancelar_alquiler()" style="text;strokeColor=none;fillColor=none;align=left;verticalAlign=top;spacingLeft=4;spacingRight=4;overflow=hidden;rotatable=0;points=[[0,0.5],[1,0.5]];portConstraint=eastwest;whiteSpace=wrap;html=1;fontColor=#000000;fontSize=15;fontFamily=Verdana;" parent="KvDCw4Us0EKXB_KUAqWt-5" vertex="1">
          <mxGeometry y="186" width="526" height="26" as="geometry" />
        </mxCell>
        <mxCell id="m6P9gPZGM51h0eqVbEvU-23" value="generar_reporte_alquiler()" style="text;strokeColor=none;fillColor=none;align=left;verticalAlign=top;spacingLeft=4;spacingRight=4;overflow=hidden;rotatable=0;points=[[0,0.5],[1,0.5]];portConstraint=eastwest;whiteSpace=wrap;html=1;fontColor=#000000;fontSize=15;fontFamily=Verdana;" vertex="1" parent="KvDCw4Us0EKXB_KUAqWt-5">
          <mxGeometry y="212" width="526" height="26" as="geometry" />
        </mxCell>
        <mxCell id="m6P9gPZGM51h0eqVbEvU-31" value="actualizar_estado()" style="text;strokeColor=none;fillColor=none;align=left;verticalAlign=top;spacingLeft=4;spacingRight=4;overflow=hidden;rotatable=0;points=[[0,0.5],[1,0.5]];portConstraint=eastwest;whiteSpace=wrap;html=1;fontColor=#000000;fontSize=15;fontFamily=Verdana;" vertex="1" parent="KvDCw4Us0EKXB_KUAqWt-5">
          <mxGeometry y="238" width="526" height="26" as="geometry" />
        </mxCell>
        <mxCell id="m6P9gPZGM51h0eqVbEvU-32" value="agregar_alquiler(idAlquiler, cliente, equipos, fechaInicio, fechaFin)" style="text;strokeColor=none;fillColor=none;align=left;verticalAlign=top;spacingLeft=4;spacingRight=4;overflow=hidden;rotatable=0;points=[[0,0.5],[1,0.5]];portConstraint=eastwest;whiteSpace=wrap;html=1;fontColor=#000000;fontSize=15;fontFamily=Verdana;" vertex="1" parent="KvDCw4Us0EKXB_KUAqWt-5">
          <mxGeometry y="264" width="526" height="26" as="geometry" />
        </mxCell>
        <mxCell id="KvDCw4Us0EKXB_KUAqWt-17" value="" style="html=1;verticalAlign=bottom;endArrow=open;dashed=1;endSize=8;curved=0;rounded=0;exitX=0;exitY=0.5;exitDx=0;exitDy=0;entryX=1;entryY=0.5;entryDx=0;entryDy=0;fontColor=#000000;strokeColor=#000000;strokeWidth=3;fontSize=15;fontFamily=Verdana;" parent="1" source="fgJ_T-vyC5k4SfeZIv40-9" edge="1" target="m6P9gPZGM51h0eqVbEvU-7">
          <mxGeometry relative="1" as="geometry">
            <mxPoint x="630" y="273" as="sourcePoint" />
            <mxPoint x="207" y="250" as="targetPoint" />
          </mxGeometry>
        </mxCell>
        <mxCell id="x4YPTmJRGb7PmWGS7XKL-1" value="Usuarios" style="swimlane;fontStyle=1;childLayout=stackLayout;horizontal=1;startSize=26;fillColor=#008796;horizontalStack=0;resizeParent=1;resizeParentMax=0;resizeLast=0;collapsible=1;marginBottom=0;whiteSpace=wrap;html=1;points=[[0,0,0,0,0],[0,0.25,0,0,0],[0,0.5,0,0,0],[0,0.75,0,0,0],[0,1,0,0,0],[0.25,0,0,0,0],[0.25,1,0,0,0],[0.5,0,0,0,0],[0.5,1,0,0,0],[0.75,0,0,0,0],[0.75,1,0,0,0],[1,0,0,0,0],[1,0.25,0,0,0],[1,0.5,0,0,0],[1,0.75,0,0,0],[1,1,0,0,0]];fontColor=#F7FCFC;strokeColor=#000000;fontSize=15;strokeWidth=2;swimlaneFillColor=#F7FCFC;fontFamily=Verdana;" parent="1" vertex="1">
          <mxGeometry x="-804" y="-265" width="392" height="326" as="geometry" />
        </mxCell>
        <mxCell id="x4YPTmJRGb7PmWGS7XKL-2" value="idUsuario: int" style="text;strokeColor=none;fillColor=none;align=left;verticalAlign=top;spacingLeft=4;spacingRight=4;overflow=hidden;rotatable=0;points=[[0,0.5],[1,0.5]];portConstraint=eastwest;whiteSpace=wrap;html=1;fontColor=#000000;fontSize=15;fontFamily=Verdana;" parent="x4YPTmJRGb7PmWGS7XKL-1" vertex="1">
          <mxGeometry y="26" width="392" height="26" as="geometry" />
        </mxCell>
        <mxCell id="x4YPTmJRGb7PmWGS7XKL-3" value="nombre_usuario: String" style="text;strokeColor=none;fillColor=none;align=left;verticalAlign=top;spacingLeft=4;spacingRight=4;overflow=hidden;rotatable=0;points=[[0,0.5],[1,0.5]];portConstraint=eastwest;whiteSpace=wrap;html=1;fontColor=#000000;fontSize=15;fontFamily=Verdana;" parent="x4YPTmJRGb7PmWGS7XKL-1" vertex="1">
          <mxGeometry y="52" width="392" height="26" as="geometry" />
        </mxCell>
        <object label="contrasena: String" Total="" id="x4YPTmJRGb7PmWGS7XKL-4">
          <mxCell style="text;strokeColor=none;fillColor=none;align=left;verticalAlign=top;spacingLeft=4;spacingRight=4;overflow=hidden;rotatable=0;points=[[0,0.5],[1,0.5]];portConstraint=eastwest;whiteSpace=wrap;html=1;fontColor=#000000;fontSize=15;fontFamily=Verdana;" parent="x4YPTmJRGb7PmWGS7XKL-1" vertex="1">
            <mxGeometry y="78" width="392" height="26" as="geometry" />
          </mxCell>
        </object>
        <object label="nombre: String" Total="" id="x4YPTmJRGb7PmWGS7XKL-5">
          <mxCell style="text;strokeColor=none;fillColor=none;align=left;verticalAlign=top;spacingLeft=4;spacingRight=4;overflow=hidden;rotatable=0;points=[[0,0.5],[1,0.5]];portConstraint=eastwest;whiteSpace=wrap;html=1;fontColor=#000000;fontSize=15;fontFamily=Verdana;" parent="x4YPTmJRGb7PmWGS7XKL-1" vertex="1">
            <mxGeometry y="104" width="392" height="26" as="geometry" />
          </mxCell>
        </object>
        <object label="correo: String" Total="" id="x4YPTmJRGb7PmWGS7XKL-6">
          <mxCell style="text;strokeColor=none;fillColor=none;align=left;verticalAlign=top;spacingLeft=4;spacingRight=4;overflow=hidden;rotatable=0;points=[[0,0.5],[1,0.5]];portConstraint=eastwest;whiteSpace=wrap;html=1;fontColor=#000000;fontSize=15;fontFamily=Verdana;" parent="x4YPTmJRGb7PmWGS7XKL-1" vertex="1">
            <mxGeometry y="130" width="392" height="26" as="geometry" />
          </mxCell>
        </object>
        <object label="contactoAdicional:&amp;nbsp;List&amp;lt;Contactos&amp;gt;" Total="" id="x4YPTmJRGb7PmWGS7XKL-7">
          <mxCell style="text;strokeColor=none;fillColor=none;align=left;verticalAlign=top;spacingLeft=4;spacingRight=4;overflow=hidden;rotatable=0;points=[[0,0.5],[1,0.5]];portConstraint=eastwest;whiteSpace=wrap;html=1;fontColor=#000000;fontSize=15;fontFamily=Verdana;" parent="x4YPTmJRGb7PmWGS7XKL-1" vertex="1">
            <mxGeometry y="156" width="392" height="26" as="geometry" />
          </mxCell>
        </object>
        <object label="fecha_creacion: date" Total="" id="0J0UeyugDyh7OBtp51ZW-16">
          <mxCell style="text;strokeColor=none;fillColor=none;align=left;verticalAlign=top;spacingLeft=4;spacingRight=4;overflow=hidden;rotatable=0;points=[[0,0.5],[1,0.5]];portConstraint=eastwest;whiteSpace=wrap;html=1;fontColor=#000000;fontSize=15;fontFamily=Verdana;" parent="x4YPTmJRGb7PmWGS7XKL-1" vertex="1">
            <mxGeometry y="182" width="392" height="26" as="geometry" />
          </mxCell>
        </object>
        <object label="rol: Rol" Total="" id="x4YPTmJRGb7PmWGS7XKL-8">
          <mxCell style="text;strokeColor=none;fillColor=none;align=left;verticalAlign=top;spacingLeft=4;spacingRight=4;overflow=hidden;rotatable=0;points=[[0,0.5],[1,0.5]];portConstraint=eastwest;whiteSpace=wrap;html=1;fontColor=#000000;fontSize=15;fontFamily=Verdana;" parent="x4YPTmJRGb7PmWGS7XKL-1" vertex="1">
            <mxGeometry y="208" width="392" height="26" as="geometry" />
          </mxCell>
        </object>
        <mxCell id="x4YPTmJRGb7PmWGS7XKL-9" value="" style="line;strokeWidth=3;fillColor=none;align=left;verticalAlign=middle;spacingTop=-1;spacingLeft=3;spacingRight=3;rotatable=0;labelPosition=right;points=[];portConstraint=eastwest;strokeColor=inherit;fontColor=#000000;fontSize=15;fontFamily=Verdana;" parent="x4YPTmJRGb7PmWGS7XKL-1" vertex="1">
          <mxGeometry y="234" width="392" height="2" as="geometry" />
        </mxCell>
        <mxCell id="x4YPTmJRGb7PmWGS7XKL-11" value="cambiar_contraseÃ±a(nueva_contraseÃ±a)" style="text;strokeColor=none;fillColor=none;align=left;verticalAlign=top;spacingLeft=4;spacingRight=4;overflow=hidden;rotatable=0;points=[[0,0.5],[1,0.5]];portConstraint=eastwest;whiteSpace=wrap;html=1;fontColor=#000000;fontSize=15;fontFamily=Verdana;" parent="x4YPTmJRGb7PmWGS7XKL-1" vertex="1">
          <mxGeometry y="236" width="392" height="30" as="geometry" />
        </mxCell>
        <mxCell id="m6P9gPZGM51h0eqVbEvU-26" value="agregar_usuario(idUsuario, nombre_usuario, ...)" style="text;strokeColor=none;fillColor=none;align=left;verticalAlign=top;spacingLeft=4;spacingRight=4;overflow=hidden;rotatable=0;points=[[0,0.5],[1,0.5]];portConstraint=eastwest;whiteSpace=wrap;html=1;fontColor=#000000;fontSize=15;fontFamily=Verdana;" vertex="1" parent="x4YPTmJRGb7PmWGS7XKL-1">
          <mxGeometry y="266" width="392" height="30" as="geometry" />
        </mxCell>
        <mxCell id="m6P9gPZGM51h0eqVbEvU-27" value="eliminar_usuario()" style="text;strokeColor=none;fillColor=none;align=left;verticalAlign=top;spacingLeft=4;spacingRight=4;overflow=hidden;rotatable=0;points=[[0,0.5],[1,0.5]];portConstraint=eastwest;whiteSpace=wrap;html=1;fontColor=#000000;fontSize=15;fontFamily=Verdana;" vertex="1" parent="x4YPTmJRGb7PmWGS7XKL-1">
          <mxGeometry y="296" width="392" height="30" as="geometry" />
        </mxCell>
        <mxCell id="x4YPTmJRGb7PmWGS7XKL-12" value="Contactos" style="swimlane;fontStyle=1;childLayout=stackLayout;horizontal=1;startSize=26;fillColor=#008796;horizontalStack=0;resizeParent=1;resizeParentMax=0;resizeLast=0;collapsible=1;marginBottom=0;whiteSpace=wrap;html=1;fontColor=#F7FCFC;strokeColor=#000000;swimlaneFillColor=#F7FCFC;strokeWidth=2;align=center;verticalAlign=middle;fontFamily=Verdana;fontSize=15;" parent="1" vertex="1">
          <mxGeometry x="-282" y="-145" width="408" height="78" as="geometry" />
        </mxCell>
        <mxCell id="x4YPTmJRGb7PmWGS7XKL-13" value="tipoContacto: ETipoContacto" style="text;strokeColor=none;fillColor=none;align=left;verticalAlign=top;spacingLeft=4;spacingRight=4;overflow=hidden;rotatable=0;points=[[0,0.5],[1,0.5]];portConstraint=eastwest;whiteSpace=wrap;html=1;fontColor=#000000;fontFamily=Verdana;fontSize=15;fontStyle=0;" parent="x4YPTmJRGb7PmWGS7XKL-12" vertex="1">
          <mxGeometry y="26" width="408" height="26" as="geometry" />
        </mxCell>
        <mxCell id="x4YPTmJRGb7PmWGS7XKL-14" value="contacto: string" style="text;strokeColor=none;fillColor=none;align=left;verticalAlign=top;spacingLeft=4;spacingRight=4;overflow=hidden;rotatable=0;points=[[0,0.5],[1,0.5]];portConstraint=eastwest;whiteSpace=wrap;html=1;fontColor=#000000;fontFamily=Verdana;fontSize=15;fontStyle=0;" parent="x4YPTmJRGb7PmWGS7XKL-12" vertex="1">
          <mxGeometry y="52" width="408" height="26" as="geometry" />
        </mxCell>
        <mxCell id="x4YPTmJRGb7PmWGS7XKL-15" value="" style="html=1;verticalAlign=bottom;endArrow=open;dashed=1;endSize=8;curved=0;rounded=0;strokeColor=#000000;strokeWidth=3;" parent="1" source="x4YPTmJRGb7PmWGS7XKL-12" target="x4YPTmJRGb7PmWGS7XKL-18" edge="1">
          <mxGeometry relative="1" as="geometry">
            <mxPoint x="-403" y="-202" as="sourcePoint" />
            <mxPoint x="-299" y="-223" as="targetPoint" />
          </mxGeometry>
        </mxCell>
        <mxCell id="x4YPTmJRGb7PmWGS7XKL-16" value="" style="endArrow=diamondThin;endFill=0;endSize=24;html=1;rounded=0;strokeColor=#000000;exitX=1;exitY=0.5;exitDx=0;exitDy=0;entryX=0;entryY=0.5;entryDx=0;entryDy=0;strokeWidth=4;" parent="1" source="x4YPTmJRGb7PmWGS7XKL-7" target="x4YPTmJRGb7PmWGS7XKL-13" edge="1">
          <mxGeometry width="160" relative="1" as="geometry">
            <mxPoint x="-386" y="-131" as="sourcePoint" />
            <mxPoint x="-146" y="-43" as="targetPoint" />
          </mxGeometry>
        </mxCell>
        <mxCell id="x4YPTmJRGb7PmWGS7XKL-18" value="&lt;p style=&quot;margin:0px;margin-top:4px;text-align:center;&quot;&gt;&lt;i&gt;&amp;lt;&amp;lt;enumeration&amp;gt;&amp;gt;&lt;/i&gt;&lt;br&gt;&lt;b&gt;EnTipoContacto&lt;/b&gt;&lt;/p&gt;&lt;hr size=&quot;1&quot;&gt;&lt;p style=&quot;margin:0px;margin-left:4px;&quot;&gt;CELULAR&lt;/p&gt;&lt;p style=&quot;margin:0px;margin-left:4px;&quot;&gt;CORRREO&lt;/p&gt;&lt;p style=&quot;margin:0px;margin-left:4px;&quot;&gt;TELEFONO&lt;/p&gt;&lt;p style=&quot;margin:0px;margin-left:4px;&quot;&gt;&lt;br&gt;&lt;/p&gt;" style="verticalAlign=top;align=left;overflow=fill;fontSize=15;fontFamily=Verdana;html=1;whiteSpace=wrap;fillColor=#008796;fontColor=#ffffff;strokeColor=#000000;strokeWidth=2;" parent="1" vertex="1">
          <mxGeometry x="193" y="-172" width="187" height="122" as="geometry" />
        </mxCell>
        <mxCell id="0J0UeyugDyh7OBtp51ZW-1" value="&lt;p style=&quot;margin: 4px 0px 0px; text-align: center; font-size: 15px;&quot;&gt;&lt;i style=&quot;font-size: 15px;&quot;&gt;&amp;lt;&amp;lt;enumeration&amp;gt;&amp;gt;&lt;/i&gt;&lt;br style=&quot;font-size: 15px;&quot;&gt;&lt;b style=&quot;font-size: 15px;&quot;&gt;EnDisponibilidad&lt;/b&gt;&lt;/p&gt;&lt;hr style=&quot;font-size: 15px;&quot;&gt;&lt;p style=&quot;margin: 0px 0px 0px 4px;&quot;&gt;DISPONIBLE&lt;/p&gt;&lt;p style=&quot;margin: 0px 0px 0px 4px;&quot;&gt;ALQUILADO&lt;/p&gt;&lt;p style=&quot;margin: 0px 0px 0px 4px;&quot;&gt;EN MANTENIMIENTO&lt;/p&gt;" style="verticalAlign=top;align=left;overflow=fill;fontSize=15;fontFamily=Verdana;html=1;whiteSpace=wrap;fillColor=#008796;strokeColor=#000000;fontColor=#ffffff;strokeWidth=2;" parent="1" vertex="1">
          <mxGeometry x="-714" y="634" width="190" height="123" as="geometry" />
        </mxCell>
        <mxCell id="0J0UeyugDyh7OBtp51ZW-2" value="&lt;p style=&quot;margin: 4px 0px 0px; text-align: center; font-size: 15px;&quot;&gt;&lt;i style=&quot;font-size: 15px;&quot;&gt;&amp;lt;&amp;lt;enumeration&amp;gt;&amp;gt;&lt;/i&gt;&lt;br style=&quot;font-size: 15px;&quot;&gt;&lt;b style=&quot;font-size: 15px;&quot;&gt;EnEstadoFactura&lt;/b&gt;&lt;/p&gt;&lt;hr style=&quot;font-size: 15px;&quot;&gt;&lt;p style=&quot;margin: 0px 0px 0px 4px;&quot;&gt;PAGADO&lt;br style=&quot;text-align: center;&quot;&gt;&lt;span style=&quot;text-align: center;&quot;&gt;PENDIENTE&lt;/span&gt;&lt;br&gt;&lt;/p&gt;" style="verticalAlign=top;align=left;overflow=fill;fontSize=15;fontFamily=Verdana;html=1;whiteSpace=wrap;fillColor=#008796;strokeColor=#000000;fontColor=#ffffff;strokeWidth=2;" parent="1" vertex="1">
          <mxGeometry x="802" y="75" width="190" height="123" as="geometry" />
        </mxCell>
        <mxCell id="0J0UeyugDyh7OBtp51ZW-3" value="Equipos" style="swimlane;fontStyle=1;childLayout=stackLayout;horizontal=1;startSize=26;fillColor=#008796;horizontalStack=0;resizeParent=1;resizeParentMax=0;resizeLast=0;collapsible=1;marginBottom=0;whiteSpace=wrap;html=1;points=[[0,0,0,0,0],[0,0.25,0,0,0],[0,0.5,0,0,0],[0,0.75,0,0,0],[0,1,0,0,0],[0.25,0,0,0,0],[0.25,1,0,0,0],[0.5,0,0,0,0],[0.5,1,0,0,0],[0.75,0,0,0,0],[0.75,1,0,0,0],[1,0,0,0,0],[1,0.25,0,0,0],[1,0.5,0,0,0],[1,0.75,0,0,0],[1,1,0,0,0]];fontColor=#F7FCFC;strokeColor=#000000;fontSize=15;strokeWidth=2;swimlaneFillColor=#F7FCFC;fontFamily=Verdana;" parent="1" vertex="1">
          <mxGeometry x="-936" y="297" width="522" height="248" as="geometry" />
        </mxCell>
        <mxCell id="0J0UeyugDyh7OBtp51ZW-4" value="&lt;div&gt;idEquipo: int&lt;/div&gt;&lt;div&gt;&lt;br&gt;&lt;/div&gt;" style="text;strokeColor=none;fillColor=none;align=left;verticalAlign=top;spacingLeft=4;spacingRight=4;overflow=hidden;rotatable=0;points=[[0,0.5],[1,0.5]];portConstraint=eastwest;whiteSpace=wrap;html=1;fontColor=#000000;fontSize=15;fontFamily=Verdana;" parent="0J0UeyugDyh7OBtp51ZW-3" vertex="1">
          <mxGeometry y="26" width="522" height="26" as="geometry" />
        </mxCell>
        <mxCell id="0J0UeyugDyh7OBtp51ZW-5" value="&lt;div&gt;descripcion: String&lt;/div&gt;" style="text;strokeColor=none;fillColor=none;align=left;verticalAlign=top;spacingLeft=4;spacingRight=4;overflow=hidden;rotatable=0;points=[[0,0.5],[1,0.5]];portConstraint=eastwest;whiteSpace=wrap;html=1;fontColor=#000000;fontSize=15;fontFamily=Verdana;" parent="0J0UeyugDyh7OBtp51ZW-3" vertex="1">
          <mxGeometry y="52" width="522" height="26" as="geometry" />
        </mxCell>
        <object label="&lt;span style=&quot;background-color: initial;&quot;&gt;categoria: String&lt;br&gt;&lt;/span&gt;" Total="" id="0J0UeyugDyh7OBtp51ZW-6">
          <mxCell style="text;strokeColor=none;fillColor=none;align=left;verticalAlign=top;spacingLeft=4;spacingRight=4;overflow=hidden;rotatable=0;points=[[0,0.5],[1,0.5]];portConstraint=eastwest;whiteSpace=wrap;html=1;fontColor=#000000;fontSize=15;fontFamily=Verdana;" parent="0J0UeyugDyh7OBtp51ZW-3" vertex="1">
            <mxGeometry y="78" width="522" height="26" as="geometry" />
          </mxCell>
        </object>
        <object label="&lt;div&gt;disponibilidad: EnDisponibilidad&lt;/div&gt;" Total="" id="0J0UeyugDyh7OBtp51ZW-7">
          <mxCell style="text;strokeColor=none;fillColor=none;align=left;verticalAlign=top;spacingLeft=4;spacingRight=4;overflow=hidden;rotatable=0;points=[[0,0.5],[1,0.5]];portConstraint=eastwest;whiteSpace=wrap;html=1;fontColor=#000000;fontSize=15;fontFamily=Verdana;" parent="0J0UeyugDyh7OBtp51ZW-3" vertex="1">
            <mxGeometry y="104" width="522" height="26" as="geometry" />
          </mxCell>
        </object>
        <object label="precioAlquilerPorDia: float" Total="" id="0J0UeyugDyh7OBtp51ZW-8">
          <mxCell style="text;strokeColor=none;fillColor=none;align=left;verticalAlign=top;spacingLeft=4;spacingRight=4;overflow=hidden;rotatable=0;points=[[0,0.5],[1,0.5]];portConstraint=eastwest;whiteSpace=wrap;html=1;fontColor=#000000;fontSize=15;fontFamily=Verdana;" parent="0J0UeyugDyh7OBtp51ZW-3" vertex="1">
            <mxGeometry y="130" width="522" height="26" as="geometry" />
          </mxCell>
        </object>
        <mxCell id="0J0UeyugDyh7OBtp51ZW-10" value="" style="line;strokeWidth=3;fillColor=none;align=left;verticalAlign=middle;spacingTop=-1;spacingLeft=3;spacingRight=3;rotatable=0;labelPosition=right;points=[];portConstraint=eastwest;strokeColor=inherit;fontColor=#000000;fontSize=15;fontFamily=Verdana;" parent="0J0UeyugDyh7OBtp51ZW-3" vertex="1">
          <mxGeometry y="156" width="522" height="2" as="geometry" />
        </mxCell>
        <mxCell id="0J0UeyugDyh7OBtp51ZW-11" value="agregar_equipo(idEquipo, descripcion, categoria, precioAlquiler)" style="text;strokeColor=none;fillColor=none;align=left;verticalAlign=top;spacingLeft=4;spacingRight=4;overflow=hidden;rotatable=0;points=[[0,0.5],[1,0.5]];portConstraint=eastwest;whiteSpace=wrap;html=1;fontColor=#000000;fontSize=15;fontFamily=Verdana;" parent="0J0UeyugDyh7OBtp51ZW-3" vertex="1">
          <mxGeometry y="158" width="522" height="30" as="geometry" />
        </mxCell>
        <mxCell id="m6P9gPZGM51h0eqVbEvU-24" value="eliminar_equipo()" style="text;strokeColor=none;fillColor=none;align=left;verticalAlign=top;spacingLeft=4;spacingRight=4;overflow=hidden;rotatable=0;points=[[0,0.5],[1,0.5]];portConstraint=eastwest;whiteSpace=wrap;html=1;fontColor=#000000;fontSize=15;fontFamily=Verdana;" vertex="1" parent="0J0UeyugDyh7OBtp51ZW-3">
          <mxGeometry y="188" width="522" height="30" as="geometry" />
        </mxCell>
        <mxCell id="m6P9gPZGM51h0eqVbEvU-25" value="actualizar_disponibilidad()" style="text;strokeColor=none;fillColor=none;align=left;verticalAlign=top;spacingLeft=4;spacingRight=4;overflow=hidden;rotatable=0;points=[[0,0.5],[1,0.5]];portConstraint=eastwest;whiteSpace=wrap;html=1;fontColor=#000000;fontSize=15;fontFamily=Verdana;" vertex="1" parent="0J0UeyugDyh7OBtp51ZW-3">
          <mxGeometry y="218" width="522" height="30" as="geometry" />
        </mxCell>
        <mxCell id="0J0UeyugDyh7OBtp51ZW-13" value="" style="html=1;verticalAlign=bottom;endArrow=open;dashed=1;endSize=8;curved=0;rounded=0;exitX=0.608;exitY=1.029;exitDx=0;exitDy=0;entryX=0.5;entryY=0;entryDx=0;entryDy=0;fontColor=#000000;strokeColor=#000000;strokeWidth=3;fontSize=15;fontFamily=Verdana;exitPerimeter=0;" parent="1" source="m6P9gPZGM51h0eqVbEvU-25" target="0J0UeyugDyh7OBtp51ZW-1" edge="1">
          <mxGeometry relative="1" as="geometry">
            <mxPoint x="-208" y="88" as="sourcePoint" />
            <mxPoint x="-80" y="247" as="targetPoint" />
          </mxGeometry>
        </mxCell>
        <mxCell id="0J0UeyugDyh7OBtp51ZW-17" value="Rol" style="swimlane;fontStyle=1;childLayout=stackLayout;horizontal=1;startSize=26;fillColor=#008796;horizontalStack=0;resizeParent=1;resizeParentMax=0;resizeLast=0;collapsible=1;marginBottom=0;whiteSpace=wrap;html=1;points=[[0,0,0,0,0],[0,0.25,0,0,0],[0,0.5,0,0,0],[0,0.75,0,0,0],[0,1,0,0,0],[0.25,0,0,0,0],[0.25,1,0,0,0],[0.5,0,0,0,0],[0.5,1,0,0,0],[0.75,0,0,0,0],[0.75,1,0,0,0],[1,0,0,0,0],[1,0.25,0,0,0],[1,0.5,0,0,0],[1,0.75,0,0,0],[1,1,0,0,0]];fontColor=#F7FCFC;strokeColor=#000000;fontSize=15;strokeWidth=2;swimlaneFillColor=#F7FCFC;fontFamily=Verdana;" parent="1" vertex="1">
          <mxGeometry x="-1296" y="-137" width="337" height="166" as="geometry" />
        </mxCell>
        <mxCell id="0J0UeyugDyh7OBtp51ZW-18" value="nombre: String" style="text;strokeColor=none;fillColor=none;align=left;verticalAlign=top;spacingLeft=4;spacingRight=4;overflow=hidden;rotatable=0;points=[[0,0.5],[1,0.5]];portConstraint=eastwest;whiteSpace=wrap;html=1;fontColor=#000000;fontSize=15;fontFamily=Verdana;" parent="0J0UeyugDyh7OBtp51ZW-17" vertex="1">
          <mxGeometry y="26" width="337" height="26" as="geometry" />
        </mxCell>
        <mxCell id="0J0UeyugDyh7OBtp51ZW-19" value="descripcion: String" style="text;strokeColor=none;fillColor=none;align=left;verticalAlign=top;spacingLeft=4;spacingRight=4;overflow=hidden;rotatable=0;points=[[0,0.5],[1,0.5]];portConstraint=eastwest;whiteSpace=wrap;html=1;fontColor=#000000;fontSize=15;fontFamily=Verdana;" parent="0J0UeyugDyh7OBtp51ZW-17" vertex="1">
          <mxGeometry y="52" width="337" height="26" as="geometry" />
        </mxCell>
        <object label="permisos: List&amp;lt;Permisos&amp;gt;" Total="" id="0J0UeyugDyh7OBtp51ZW-20">
          <mxCell style="text;strokeColor=none;fillColor=none;align=left;verticalAlign=top;spacingLeft=4;spacingRight=4;overflow=hidden;rotatable=0;points=[[0,0.5],[1,0.5]];portConstraint=eastwest;whiteSpace=wrap;html=1;fontColor=#000000;fontSize=15;fontFamily=Verdana;" parent="0J0UeyugDyh7OBtp51ZW-17" vertex="1">
            <mxGeometry y="78" width="337" height="26" as="geometry" />
          </mxCell>
        </object>
        <mxCell id="0J0UeyugDyh7OBtp51ZW-26" value="" style="line;strokeWidth=3;fillColor=none;align=left;verticalAlign=middle;spacingTop=-1;spacingLeft=3;spacingRight=3;rotatable=0;labelPosition=right;points=[];portConstraint=eastwest;strokeColor=inherit;fontColor=#000000;fontSize=15;fontFamily=Verdana;" parent="0J0UeyugDyh7OBtp51ZW-17" vertex="1">
          <mxGeometry y="104" width="337" height="2" as="geometry" />
        </mxCell>
        <mxCell id="0J0UeyugDyh7OBtp51ZW-27" value="agregar_permisos" style="text;strokeColor=none;fillColor=none;align=left;verticalAlign=top;spacingLeft=4;spacingRight=4;overflow=hidden;rotatable=0;points=[[0,0.5],[1,0.5]];portConstraint=eastwest;whiteSpace=wrap;html=1;fontColor=#000000;fontSize=15;fontFamily=Verdana;" parent="0J0UeyugDyh7OBtp51ZW-17" vertex="1">
          <mxGeometry y="106" width="337" height="30" as="geometry" />
        </mxCell>
        <mxCell id="m6P9gPZGM51h0eqVbEvU-21" value="remover_permisos" style="text;strokeColor=none;fillColor=none;align=left;verticalAlign=top;spacingLeft=4;spacingRight=4;overflow=hidden;rotatable=0;points=[[0,0.5],[1,0.5]];portConstraint=eastwest;whiteSpace=wrap;html=1;fontColor=#000000;fontSize=15;fontFamily=Verdana;" vertex="1" parent="0J0UeyugDyh7OBtp51ZW-17">
          <mxGeometry y="136" width="337" height="30" as="geometry" />
        </mxCell>
        <mxCell id="m6P9gPZGM51h0eqVbEvU-1" value="" style="html=1;verticalAlign=bottom;endArrow=open;dashed=1;endSize=8;curved=0;rounded=0;exitX=0;exitY=0.5;exitDx=0;exitDy=0;fontColor=#000000;strokeColor=#000000;strokeWidth=3;fontSize=15;fontFamily=Verdana;entryX=1;entryY=0.5;entryDx=0;entryDy=0;" edge="1" parent="1" source="x4YPTmJRGb7PmWGS7XKL-8" target="0J0UeyugDyh7OBtp51ZW-20">
          <mxGeometry relative="1" as="geometry">
            <mxPoint x="-1129" y="-501" as="sourcePoint" />
            <mxPoint x="-870" y="-120" as="targetPoint" />
          </mxGeometry>
        </mxCell>
        <mxCell id="m6P9gPZGM51h0eqVbEvU-4" value="" style="endArrow=diamondThin;endFill=1;endSize=24;html=1;rounded=0;entryX=0.5;entryY=0;entryDx=0;entryDy=0;entryPerimeter=0;exitX=0;exitY=0.5;exitDx=0;exitDy=0;strokeColor=#000000;strokeWidth=4;" edge="1" parent="1" source="KvDCw4Us0EKXB_KUAqWt-10" target="0J0UeyugDyh7OBtp51ZW-3">
          <mxGeometry width="160" relative="1" as="geometry">
            <mxPoint x="-353" y="326" as="sourcePoint" />
            <mxPoint x="-193" y="326" as="targetPoint" />
            <Array as="points">
              <mxPoint x="-675" y="224" />
            </Array>
          </mxGeometry>
        </mxCell>
        <mxCell id="m6P9gPZGM51h0eqVbEvU-5" value="" style="html=1;verticalAlign=bottom;endArrow=open;dashed=1;endSize=8;curved=0;rounded=0;exitX=1;exitY=0.5;exitDx=0;exitDy=0;entryX=0.25;entryY=0;entryDx=0;entryDy=0;fontColor=#000000;strokeColor=#000000;strokeWidth=3;fontSize=15;fontFamily=Verdana;entryPerimeter=0;" edge="1" parent="1" source="x4YPTmJRGb7PmWGS7XKL-8" target="KvDCw4Us0EKXB_KUAqWt-5">
          <mxGeometry relative="1" as="geometry">
            <mxPoint x="293" y="299" as="sourcePoint" />
            <mxPoint x="217" y="260" as="targetPoint" />
            <Array as="points">
              <mxPoint x="-181" y="-40" />
            </Array>
          </mxGeometry>
        </mxCell>
        <mxCell id="m6P9gPZGM51h0eqVbEvU-11" value="Permisos" style="swimlane;fontStyle=1;childLayout=stackLayout;horizontal=1;startSize=26;fillColor=#008796;horizontalStack=0;resizeParent=1;resizeParentMax=0;resizeLast=0;collapsible=1;marginBottom=0;whiteSpace=wrap;html=1;points=[[0,0,0,0,0],[0,0.25,0,0,0],[0,0.5,0,0,0],[0,0.75,0,0,0],[0,1,0,0,0],[0.25,0,0,0,0],[0.25,1,0,0,0],[0.5,0,0,0,0],[0.5,1,0,0,0],[0.75,0,0,0,0],[0.75,1,0,0,0],[1,0,0,0,0],[1,0.25,0,0,0],[1,0.5,0,0,0],[1,0.75,0,0,0],[1,1,0,0,0]];fontColor=#F7FCFC;strokeColor=#000000;fontSize=15;strokeWidth=2;swimlaneFillColor=#F7FCFC;fontFamily=Verdana;" vertex="1" parent="1">
          <mxGeometry x="-1255" y="138" width="237" height="78" as="geometry" />
        </mxCell>
        <mxCell id="m6P9gPZGM51h0eqVbEvU-12" value="nombre: EnPermisos" style="text;strokeColor=none;fillColor=none;align=left;verticalAlign=top;spacingLeft=4;spacingRight=4;overflow=hidden;rotatable=0;points=[[0,0.5],[1,0.5]];portConstraint=eastwest;whiteSpace=wrap;html=1;fontColor=#000000;fontSize=15;fontFamily=Verdana;" vertex="1" parent="m6P9gPZGM51h0eqVbEvU-11">
          <mxGeometry y="26" width="237" height="26" as="geometry" />
        </mxCell>
        <mxCell id="m6P9gPZGM51h0eqVbEvU-13" value="descripcion: String" style="text;strokeColor=none;fillColor=none;align=left;verticalAlign=top;spacingLeft=4;spacingRight=4;overflow=hidden;rotatable=0;points=[[0,0.5],[1,0.5]];portConstraint=eastwest;whiteSpace=wrap;html=1;fontColor=#000000;fontSize=15;fontFamily=Verdana;" vertex="1" parent="m6P9gPZGM51h0eqVbEvU-11">
          <mxGeometry y="52" width="237" height="26" as="geometry" />
        </mxCell>
        <mxCell id="m6P9gPZGM51h0eqVbEvU-18" value="&lt;p style=&quot;margin:0px;margin-top:4px;text-align:center;&quot;&gt;&lt;i&gt;&amp;lt;&amp;lt;enumeration&amp;gt;&amp;gt;&lt;/i&gt;&lt;br&gt;&lt;b&gt;EnPermisos&lt;/b&gt;&lt;/p&gt;&lt;hr size=&quot;1&quot;&gt;&lt;p style=&quot;margin:0px;margin-left:4px;&quot;&gt;GESTIONAR_ALQUILERES&lt;/p&gt;&lt;p style=&quot;margin:0px;margin-left:4px;&quot;&gt;GESTIONAR_CLIENTES&lt;/p&gt;&lt;p style=&quot;margin:0px;margin-left:4px;&quot;&gt;GESTIONAR_EQUIPOS&lt;/p&gt;&lt;p style=&quot;margin:0px;margin-left:4px;&quot;&gt;GESTIONAR_FACTURAS&lt;/p&gt;&lt;p style=&quot;margin:0px;margin-left:4px;&quot;&gt;ACCEDER_INFORMES&lt;/p&gt;&lt;p style=&quot;margin:0px;margin-left:4px;&quot;&gt;GESTIONAR_USUARIOS&lt;/p&gt;&lt;p style=&quot;margin:0px;margin-left:4px;&quot;&gt;ACCEDER_PLATAFORMA&lt;/p&gt;&lt;p style=&quot;margin:0px;margin-left:4px;&quot;&gt;REALIZAR_ALQUILER&lt;/p&gt;&lt;p style=&quot;margin:0px;margin-left:4px;&quot;&gt;GESTIONAR_ROLES_Y_PERMISOS&lt;/p&gt;&lt;p style=&quot;margin:0px;margin-left:4px;&quot;&gt;REALIZAR_MANTENIMIENTO&lt;/p&gt;&lt;p style=&quot;margin:0px;margin-left:4px;&quot;&gt;GESTIONAR_PAGOS&lt;/p&gt;&lt;p style=&quot;margin:0px;margin-left:4px;&quot;&gt;ACCEDER_REGISTRO_ACTIVIDADES&lt;/p&gt;&lt;p style=&quot;margin:0px;margin-left:4px;&quot;&gt;GESTIONAR_RESERVAS&lt;/p&gt;" style="verticalAlign=top;align=left;overflow=fill;fontSize=15;fontFamily=Verdana;html=1;whiteSpace=wrap;fillColor=#008796;fontColor=#ffffff;strokeColor=#000000;strokeWidth=2;" vertex="1" parent="1">
          <mxGeometry x="-1288" y="322" width="303" height="297" as="geometry" />
        </mxCell>
        <mxCell id="m6P9gPZGM51h0eqVbEvU-19" value="" style="html=1;verticalAlign=bottom;endArrow=open;dashed=1;endSize=8;curved=0;rounded=0;exitX=0.485;exitY=1.163;exitDx=0;exitDy=0;entryX=0.5;entryY=0;entryDx=0;entryDy=0;fontColor=#000000;strokeColor=#000000;strokeWidth=3;fontSize=15;fontFamily=Verdana;exitPerimeter=0;" edge="1" parent="1" source="m6P9gPZGM51h0eqVbEvU-13" target="m6P9gPZGM51h0eqVbEvU-18">
          <mxGeometry relative="1" as="geometry">
            <mxPoint x="-1205" y="-112" as="sourcePoint" />
            <mxPoint x="-1281" y="-72" as="targetPoint" />
          </mxGeometry>
        </mxCell>
        <mxCell id="m6P9gPZGM51h0eqVbEvU-22" value="" style="endArrow=diamondThin;endFill=1;endSize=24;html=1;rounded=0;entryX=0.5;entryY=0;entryDx=0;entryDy=0;strokeColor=#000000;strokeWidth=4;entryPerimeter=0;exitX=0.483;exitY=1.006;exitDx=0;exitDy=0;exitPerimeter=0;" edge="1" parent="1" source="m6P9gPZGM51h0eqVbEvU-21" target="m6P9gPZGM51h0eqVbEvU-11">
          <mxGeometry width="160" relative="1" as="geometry">
            <mxPoint x="-1082" y="66" as="sourcePoint" />
            <mxPoint x="-1027.5" y="237" as="targetPoint" />
          </mxGeometry>
        </mxCell>
        <mxCell id="m6P9gPZGM51h0eqVbEvU-29" value="&lt;p style=&quot;margin: 4px 0px 0px; text-align: center; font-size: 15px;&quot;&gt;&lt;i style=&quot;font-size: 15px;&quot;&gt;&amp;lt;&amp;lt;enumeration&amp;gt;&amp;gt;&lt;/i&gt;&lt;br style=&quot;font-size: 15px;&quot;&gt;&lt;b style=&quot;font-size: 15px;&quot;&gt;EnEstadoAlquiler&lt;/b&gt;&lt;/p&gt;&lt;hr style=&quot;font-size: 15px;&quot;&gt;&lt;p style=&quot;margin: 0px 0px 0px 4px;&quot;&gt;EN_CURSO&lt;/p&gt;&lt;p style=&quot;margin: 0px 0px 0px 4px;&quot;&gt;FINALIZADO&lt;/p&gt;&lt;p style=&quot;margin: 0px 0px 0px 4px;&quot;&gt;CANCELADO&lt;/p&gt;" style="verticalAlign=top;align=left;overflow=fill;fontSize=15;fontFamily=Verdana;html=1;whiteSpace=wrap;fillColor=#008796;strokeColor=#000000;fontColor=#ffffff;strokeWidth=2;" vertex="1" parent="1">
          <mxGeometry x="-163" y="530" width="190" height="123" as="geometry" />
        </mxCell>
        <mxCell id="m6P9gPZGM51h0eqVbEvU-30" value="" style="html=1;verticalAlign=bottom;endArrow=open;dashed=1;endSize=8;curved=0;rounded=0;entryX=0.5;entryY=0;entryDx=0;entryDy=0;fontColor=#000000;strokeColor=#000000;strokeWidth=3;fontSize=15;fontFamily=Verdana;exitX=0.454;exitY=1.05;exitDx=0;exitDy=0;exitPerimeter=0;" edge="1" target="m6P9gPZGM51h0eqVbEvU-29" parent="1" source="m6P9gPZGM51h0eqVbEvU-32">
          <mxGeometry relative="1" as="geometry">
            <mxPoint x="-177" y="443" as="sourcePoint" />
            <mxPoint x="330.62" y="150.13" as="targetPoint" />
          </mxGeometry>
        </mxCell>
      </root>
    </mxGraphModel>
  </diagram>
</mxfile>
